<svg id="Layer_2_00000150789221119000090930000007245456766464999355_" enable-background="new 0 0 512 512" viewBox="0 0 512 512" xmlns="http://www.w3.org/2000/svg" xmlns:xlink="http://www.w3.org/1999/xlink"><linearGradient id="SVGID_1_" gradientTransform="matrix(1 0 0 -1 0 513.5)" gradientUnits="userSpaceOnUse" x1="256.005" x2="256.005" y1="200.25" y2="135.25"><stop offset="0" stop-color="#616161"/><stop offset=".8" stop-color="#c2c2c2"/></linearGradient><linearGradient id="lg1"><stop offset="0" stop-color="#616161"/><stop offset="1" stop-color="#9c9c9c"/></linearGradient><linearGradient id="SVGID_00000044160685531019343370000011360146278368785312_" gradientTransform="matrix(1 0 0 -1 0 513.5)" gradientUnits="userSpaceOnUse" x1="256.005" x2="256.005" xlink:href="#lg1" y1="80.25" y2="135.25"/><linearGradient id="SVGID_00000008110835229134892530000001468051841966418853_" gradientTransform="matrix(1 0 0 -1 0 513.5)" gradientUnits="userSpaceOnUse" x1="256.005" x2="256.005" y1="25.25" y2="80.25"><stop offset="0" stop-color="#adadad"/><stop offset="1" stop-color="#e6e6e6"/></linearGradient><linearGradient id="lg2"><stop offset="0" stop-color="#808080"/><stop offset=".2" stop-color="#929292"/><stop offset=".59" stop-color="#c2c2c2"/><stop offset=".8" stop-color="#dedede"/></linearGradient><linearGradient id="SVGID_00000041974880408428166440000001512353556774650541_" gradientTransform="matrix(1 0 0 -1 0 513.5)" gradientUnits="userSpaceOnUse" x1="269.644" x2="491.576" xlink:href="#lg2" y1="291.195" y2="322.385"/><linearGradient id="SVGID_00000116947848682009355170000000017776729571413423_" gradientTransform="matrix(-1 0 0 -1 459.78 513.5)" gradientUnits="userSpaceOnUse" x1="217.429" x2="439.363" xlink:href="#lg2" y1="291.195" y2="322.384"/><linearGradient id="SVGID_00000054232200152529983150000011857978999749057689_" gradientTransform="matrix(1 0 0 -1 0 513.5)" gradientUnits="userSpaceOnUse" x1="256" x2="256" y1="424.75" y2="172.25"><stop offset="0" stop-color="#b3b3b3"/><stop offset=".2" stop-color="#c7c7c7"/><stop offset=".43" stop-color="#d8d8d8"/><stop offset=".68" stop-color="#e2e2e2"/><stop offset="1" stop-color="#e6e6e6"/></linearGradient><linearGradient id="lg3"><stop offset="0" stop-color="#b6b6b6"/><stop offset="1" stop-color="#ededed"/></linearGradient><linearGradient id="SVGID_00000147203090252669650250000005567952324694909349_" gradientTransform="matrix(1 0 0 -1 0 513.5)" gradientUnits="userSpaceOnUse" x1="256.005" x2="256.005" xlink:href="#lg3" y1="424.75" y2="489.75"/><linearGradient id="SVGID_00000087407379590840961320000015773108969571168947_" gradientTransform="matrix(1 0 0 -1 0 513.5)" gradientUnits="userSpaceOnUse" x1="256.005" x2="256.005" xlink:href="#lg1" y1="248.5" y2="388.5"/><linearGradient id="SVGID_00000077302638126353951350000000242769472460968107_" gradientTransform="matrix(1 0 0 -1 0 513.5)" gradientUnits="userSpaceOnUse" x1="256" x2="256" xlink:href="#lg3" y1="271.61" y2="365.37"/><g id="Icon"><g id="_12"><g><path d="m318.5 378.2h-125l20-65h85z" fill="url(#SVGID_1_)"/><path d="m161 378.2h190c11 0 20 9 20 20v35h-230v-35c0-11 9-20 20-20z" fill="url(#SVGID_00000044160685531019343370000011360146278368785312_)"/><path d="m128.5 433.2h255c15.2 0 27.5 12.3 27.5 27.5 0 15.2-12.3 27.5-27.5 27.5h-255c-15.2 0-27.5-12.3-27.5-27.5 0-15.1 12.3-27.5 27.5-27.5z" fill="url(#SVGID_00000008110835229134892530000001468051841966418853_)"/></g><g><path d="m422.6 155.2c5 0 6.4 1.4 7.3 2.3 1.1 1.1 1.6 2 1.9 3.5.4 1.8.8 5.7-.8 12.4-3.7 15.9-15.5 34.6-32.3 51.4-24.7 24.7-47.8 33.5-60 33.5-5 0-6.4-1.4-7.3-2.3-1.1-1.1-1.6-2-1.9-3.5-.4-1.8-.8-5.7.8-12.4 3.7-15.9 15.5-34.6 32.3-51.4 24.7-24.7 47.7-33.5 60-33.5m0-55c-31.3 0-67.7 18.4-98.9 49.6-48.7 48.7-66.2 110.1-31.2 145.1 12.6 12.6 28.6 18.4 46.1 18.4 31.3 0 67.7-18.4 98.9-49.6 48.7-48.7 66.2-110.1 31.2-145.1-12.5-12.6-28.5-18.4-46.1-18.4z" fill="url(#SVGID_00000041974880408428166440000001512353556774650541_)"/><path d="m89.4 155.2c12.3 0 35.3 8.8 60 33.5 16.8 16.8 28.6 35.6 32.3 51.4 1.6 6.7 1.2 10.6.8 12.4-.3 1.5-.8 2.4-1.9 3.5-.9.9-2.3 2.3-7.3 2.3-12.3 0-35.3-8.8-60-33.5-16.8-16.8-28.6-35.5-32.3-51.4-1.6-6.7-1.2-10.6-.8-12.4.3-1.5.8-2.4 1.9-3.5.9-.9 2.3-2.3 7.3-2.3m0-55c-17.6 0-33.6 5.8-46.2 18.4-35 35-17.5 96.4 31.2 145.1 31.2 31.2 67.6 49.6 98.9 49.6 17.6 0 33.6-5.8 46.1-18.4 35-35 17.5-96.4-31.2-145.1-31.1-31.2-67.5-49.6-98.8-49.6z" fill="url(#SVGID_00000116947848682009355170000000017776729571413423_)"/></g><path d="m143.9 229.1v-26.7c0-23.3-3.8-46.5-11.9-68.4-5.2-14.1-8.1-29.3-8.1-45.3h264.2c0 15.9-2.9 31.2-8.1 45.3-8.1 21.8-11.9 45.1-11.9 68.4v26.7c0 61.9-50.2 112.1-112.1 112.1-61.9 0-112.1-50.2-112.1-112.1z" fill="url(#SVGID_00000054232200152529983150000011857978999749057689_)"/><path d="m123.5 23.8h265c17.9 0 32.5 14.6 32.5 32.5 0 17.9-14.6 32.5-32.5 32.5h-265c-17.9 0-32.5-14.6-32.5-32.6 0-17.9 14.6-32.4 32.5-32.4z" fill="url(#SVGID_00000147203090252669650250000005567952324694909349_)"/><g><circle cx="256" cy="195" fill="url(#SVGID_00000087407379590840961320000015773108969571168947_)" r="70"/><path d="m224.2 241.9v-14.3l29.8-31.4c2.7-3.1 4.8-5.7 6.4-8.1s2.7-4.5 3.4-6.4 1-3.8 1-5.6c0-3-.8-5.6-2.4-7.6-1.6-2.1-4-3.1-7.2-3.1-3.5 0-6.1 1.2-7.8 3.7s-2.5 5.8-2.5 10h-21.9l-.1-.4c-.1-5.7 1.1-10.9 3.7-15.5s6.4-8.3 11.3-11 10.7-4.1 17.3-4.1 12.3 1.2 17.1 3.5 8.4 5.5 11 9.7 3.8 9.1 3.8 14.6c0 3.8-.6 7.3-1.9 10.5s-3.4 6.6-6.4 10.2-6.9 8-11.8 13.2l-14 14.8.1.3h18.3l.9-7.7h16.7v24.6z" fill="url(#SVGID_00000077302638126353951350000000242769472460968107_)"/></g></g></g></svg>