<svg id="Layer_2_00000049184859843452414870000017651984077811636905_" enable-background="new 0 0 512 512" viewBox="0 0 512 512" xmlns="http://www.w3.org/2000/svg" xmlns:xlink="http://www.w3.org/1999/xlink"><linearGradient id="SVGID_1_" gradientTransform="matrix(1 0 0 -1 0 513.5)" gradientUnits="userSpaceOnUse" x1="256.005" x2="256.005" y1="200.25" y2="135.25"><stop offset="0" stop-color="#de3909"/><stop offset=".8" stop-color="#fd8533"/></linearGradient><linearGradient id="SVGID_00000036244379901774299760000016675075863610718399_" gradientTransform="matrix(1 0 0 -1 0 513.5)" gradientUnits="userSpaceOnUse" x1="256.005" x2="256.005" y1="80.25" y2="135.25"><stop offset="0" stop-color="#994311"/><stop offset="1" stop-color="#cc6c35"/></linearGradient><linearGradient id="SVGID_00000029755411425307859210000012345374207355862177_" gradientTransform="matrix(1 0 0 -1 0 513.5)" gradientUnits="userSpaceOnUse" x1="256.005" x2="256.005" y1="25.25" y2="80.25"><stop offset="0" stop-color="#ff7100"/><stop offset="1" stop-color="#fca543"/></linearGradient><linearGradient id="lg1"><stop offset="0" stop-color="#da2f09"/><stop offset=".18" stop-color="#e04110"/><stop offset=".54" stop-color="#f07123"/><stop offset=".8" stop-color="#fd9833"/></linearGradient><linearGradient id="SVGID_00000163030774191792726800000000228983681447816861_" gradientTransform="matrix(1 0 0 -1 0 513.5)" gradientUnits="userSpaceOnUse" x1="269.644" x2="491.576" xlink:href="#lg1" y1="291.195" y2="322.385"/><linearGradient id="SVGID_00000108270821206960097420000011073112911315047348_" gradientTransform="matrix(-1 0 0 -1 459.78 513.5)" gradientUnits="userSpaceOnUse" x1="217.429" x2="439.363" xlink:href="#lg1" y1="291.195" y2="322.384"/><linearGradient id="SVGID_00000038405311818729294650000000759227786810159256_" gradientTransform="matrix(1 0 0 -1 0 513.5)" gradientUnits="userSpaceOnUse" x1="256" x2="256" y1="424.75" y2="172.25"><stop offset="0" stop-color="#ff6300"/><stop offset=".09" stop-color="#ff7100"/><stop offset=".29" stop-color="#f80"/><stop offset=".49" stop-color="#f90"/><stop offset=".72" stop-color="#ffa300"/><stop offset="1" stop-color="#ffa700"/></linearGradient><linearGradient id="SVGID_00000008845941378583211140000004522691124626481304_" gradientTransform="matrix(1 0 0 -1 0 513.5)" gradientUnits="userSpaceOnUse" x1="256.005" x2="256.005" y1="424.75" y2="489.75"><stop offset="0" stop-color="#ff8100"/><stop offset="1" stop-color="#ffc13d"/></linearGradient><linearGradient id="SVGID_00000100363083869508248650000015173238942801271226_" gradientTransform="matrix(1 0 0 -1 0 513.5)" gradientUnits="userSpaceOnUse" x1="256.005" x2="256.005" y1="248.5" y2="388.5"><stop offset="0" stop-color="#ffc68f"/><stop offset="1" stop-color="#fff8e0"/></linearGradient><linearGradient id="SVGID_00000117652949486137184460000010501834332002882747_" gradientTransform="matrix(1 0 0 -1 0 513.5)" gradientUnits="userSpaceOnUse" x1="255.987" x2="255.987" y1="270.95" y2="366.04"><stop offset="0" stop-color="#fd6800"/><stop offset=".71" stop-color="#fd8f30"/></linearGradient><g id="Icon"><g id="_13"><g><path d="m318.5 378.2h-125l20-65h85z" fill="url(#SVGID_1_)"/><path d="m161 378.2h190c11 0 20 9 20 20v35h-230v-35c0-11 9-20 20-20z" fill="url(#SVGID_00000036244379901774299760000016675075863610718399_)"/><path d="m128.5 433.2h255c15.2 0 27.5 12.3 27.5 27.5 0 15.2-12.3 27.5-27.5 27.5h-255c-15.2 0-27.5-12.3-27.5-27.5 0-15.1 12.3-27.5 27.5-27.5z" fill="url(#SVGID_00000029755411425307859210000012345374207355862177_)"/></g><g><path d="m422.6 155.2c5 0 6.4 1.4 7.3 2.3 1.1 1.1 1.6 2 1.9 3.5.4 1.8.8 5.7-.8 12.4-3.7 15.9-15.5 34.6-32.3 51.4-24.7 24.7-47.8 33.5-60 33.5-5 0-6.4-1.4-7.3-2.3-1.1-1.1-1.6-2-1.9-3.5-.4-1.8-.8-5.7.8-12.4 3.7-15.9 15.5-34.6 32.3-51.4 24.7-24.7 47.7-33.5 60-33.5m0-55c-31.3 0-67.7 18.4-98.9 49.6-48.7 48.7-66.2 110.1-31.2 145.1 12.6 12.6 28.6 18.4 46.1 18.4 31.3 0 67.7-18.4 98.9-49.6 48.7-48.7 66.2-110.1 31.2-145.1-12.5-12.6-28.5-18.4-46.1-18.4z" fill="url(#SVGID_00000163030774191792726800000000228983681447816861_)"/><path d="m89.4 155.2c12.3 0 35.3 8.8 60 33.5 16.8 16.8 28.6 35.6 32.3 51.4 1.6 6.7 1.2 10.6.8 12.4-.3 1.5-.8 2.4-1.9 3.5-.9.9-2.3 2.3-7.3 2.3-12.3 0-35.3-8.8-60-33.5-16.8-16.8-28.6-35.5-32.3-51.4-1.6-6.7-1.2-10.6-.8-12.4.3-1.5.8-2.4 1.9-3.5.9-.9 2.3-2.3 7.3-2.3m0-55c-17.6 0-33.6 5.8-46.2 18.4-35 35-17.5 96.4 31.2 145.1 31.2 31.2 67.6 49.6 98.9 49.6 17.6 0 33.6-5.8 46.1-18.4 35-35 17.5-96.4-31.2-145.1-31.1-31.2-67.5-49.6-98.8-49.6z" fill="url(#SVGID_00000108270821206960097420000011073112911315047348_)"/></g><path d="m143.9 229.1v-26.7c0-23.3-3.8-46.5-11.9-68.4-5.2-14.1-8.1-29.3-8.1-45.3h264.2c0 15.9-2.9 31.2-8.1 45.3-8.1 21.8-11.9 45.1-11.9 68.4v26.7c0 61.9-50.2 112.1-112.1 112.1-61.9 0-112.1-50.2-112.1-112.1z" fill="url(#SVGID_00000038405311818729294650000000759227786810159256_)"/><path d="m123.5 23.8h265c17.9 0 32.5 14.6 32.5 32.5 0 17.9-14.6 32.5-32.5 32.5h-265c-17.9 0-32.5-14.6-32.5-32.6 0-17.9 14.6-32.4 32.5-32.4z" fill="url(#SVGID_00000008845941378583211140000004522691124626481304_)"/><g><circle cx="256" cy="195" fill="url(#SVGID_00000100363083869508248650000015173238942801271226_)" r="70"/><path d="m255.5 242.5c-6.1 0-11.6-1.1-16.7-3.1-5.1-2.1-9.1-5.2-12.2-9.2-3-4.1-4.4-9-4.3-14.9l.1-.4h21.7c0 1.9.5 3.7 1.4 5.4.9 1.6 2.2 2.9 4 3.9 1.7 1 3.7 1.5 6.1 1.5 3.6 0 6.5-1.1 8.7-3.2 2.1-2.1 3.2-4.9 3.2-8.2s-1.2-6.3-3.5-8.5-5.7-3.3-10.2-3.3h-9.5v-16.4h10.1c2.5 0 4.6-.4 6.3-1.4 1.7-.9 3-2.2 3.9-3.8s1.3-3.5 1.3-5.7c0-3.1-.9-5.6-2.7-7.6s-4.4-3-7.7-3c-1.9 0-3.6.4-5.1 1.1s-2.7 1.8-3.6 3.1-1.3 2.9-1.3 4.7h-21.6l-.1-.4c-.2-5.1 1.1-9.5 3.8-13.4s6.4-6.8 11.3-9c4.8-2.1 10.3-3.2 16.4-3.2 9.9 0 17.9 2.3 23.9 6.8 6 4.6 9 11 9 19.3 0 4.6-1.2 8.6-3.6 11.8s-6.1 6.1-10.9 8.4c4.9 1.8 8.8 4.6 11.6 8.2s4.4 8.1 4.4 13.2c0 5.6-1.5 10.5-4.4 14.6-3 4.1-7 7.2-12.2 9.4s-11 3.4-17.6 3.3z" fill="url(#SVGID_00000117652949486137184460000010501834332002882747_)"/></g></g></g></svg>