<svg id="Layer_1" enable-background="new 0 0 64 64" height="512" viewBox="0 0 64 64" width="512" xmlns="http://www.w3.org/2000/svg"><g><path d="m20.1 57.7c-.4.8-1.4 1.1-2.2.6-18.9-11.7-18.7-40.1.5-51.5.5-.3 1.2-.1 1.5.4.3.5.1 1.1-.4 1.4-17.9 10.7-17.7 36.3 0 47.1.7.4.9 1.3.6 2z" fill="#4cb274"/><g fill="#79dca0"><path d="m19.4 13.4c-1.4 1.1-2.9 1.7-4.4 2s-2.9.1-4-.7c2.5-3.3 6.8-3.6 8.4-1.3z"/><path d="m13.3 5.4c-2 1.6-3.3 3.6-3.6 5.3-.4 1.8.1 3.2 1.2 4.1 2.4-3.2 4-7.1 2.4-9.4z"/><path d="m14.6 18.2c-1 1.3-2.2 2.4-3.5 3s-2.8.9-4 .4c1.4-3.9 5.3-5.1 7.5-3.4z"/><path d="m6.5 12.2c-1.4 1.9-2 4.1-1.8 5.8s1 3 2.3 3.5c1.4-3.5 1.7-7.5-.5-9.3z"/><path d="m11.5 23.9c-.6 1.5-1.5 2.8-2.6 3.7s-2.4 1.6-3.8 1.4c.5-4 3.8-6.2 6.4-5.1z"/><path d="m2.1 20.3c-.8 2.2-.8 4.4-.2 6s1.8 2.6 3.2 2.7c.4-3.8-.4-7.6-3-8.7z"/><path d="m10 30.1c-.2 1.6-.7 3.1-1.5 4.3s-1.9 2.1-3.3 2.3c-.6-4 2.1-7 4.8-6.6z"/><path d="m0 29.1c-.2 2.3.4 4.4 1.4 5.8s2.4 2 3.8 1.8c-.6-3.8-2.4-7.2-5.2-7.6z"/><path d="m10.2 36.5c.3 1.6.1 3.2-.3 4.5-.5 1.4-1.3 2.6-2.6 3.2-1.6-3.8.2-7.4 2.9-7.7z"/><path d="m.4 38.1c.4 2.3 1.5 4.2 2.9 5.2 1.4 1.1 2.9 1.3 4.1.8-1.6-3.5-4.3-6.3-7-6z"/><path d="m12.1 42.6c.7 1.5 1 3 .9 4.5s-.5 2.9-1.6 3.8c-2.6-3.3-1.8-7.3.7-8.3z"/><path d="m3 46.8c1 2.1 2.6 3.7 4.2 4.4s3.2.6 4.2-.3c-2.5-3.1-5.8-5.1-8.4-4.1z"/><path d="m15.7 48c1.1 1.3 1.9 2.7 2.3 4.2s.4 3-.3 4.1c-3.8-2.4-4.2-6.6-2-8.3z"/><path d="m8.1 54.6c1.6 1.8 3.7 2.9 5.5 3.2s3.3-.3 4.1-1.4c-3.6-2.4-7.4-3.5-9.6-1.8z"/></g><path d="m43.9 57.7c.4.8 1.4 1.1 2.2.6 18.9-11.7 18.7-40.1-.5-51.5-.5-.3-1.2-.1-1.5.4-.3.5-.1 1.1.4 1.4 17.9 10.7 17.6 36.2-.1 47.1-.6.4-.8 1.3-.5 2z" fill="#4cb274"/><path d="m44.6 13.4c1.4 1.1 2.9 1.7 4.4 2s2.9.1 4-.7c-2.5-3.3-6.8-3.6-8.4-1.3z" fill="#79dca0"/><path d="m50.7 5.4c2 1.6 3.3 3.6 3.6 5.3.4 1.8-.1 3.2-1.2 4.1-2.4-3.2-4-7.1-2.4-9.4z" fill="#79dca0"/><path d="m49.4 18.2c1 1.3 2.2 2.4 3.5 3s2.8.9 4 .4c-1.4-3.9-5.3-5.1-7.5-3.4z" fill="#79dca0"/><path d="m57.5 12.2c1.4 1.9 2 4.1 1.8 5.8s-1 3-2.3 3.5c-1.4-3.5-1.7-7.5.5-9.3z" fill="#79dca0"/><path d="m52.5 23.9c.6 1.5 1.5 2.8 2.6 3.7s2.4 1.6 3.8 1.4c-.5-4-3.8-6.2-6.4-5.1z" fill="#79dca0"/><path d="m61.9 20.3c.8 2.2.8 4.4.2 6s-1.8 2.6-3.2 2.7c-.4-3.8.4-7.6 3-8.7z" fill="#79dca0"/><path d="m54 30.1c.2 1.6.7 3.1 1.5 4.3s1.9 2.1 3.3 2.3c.6-4-2.1-7-4.8-6.6z" fill="#79dca0"/><path d="m64 29.1c.2 2.3-.4 4.4-1.4 5.8s-2.4 2-3.8 1.8c.6-3.8 2.4-7.2 5.2-7.6z" fill="#79dca0"/><path d="m53.8 36.5c-.3 1.6-.1 3.2.3 4.5.5 1.4 1.3 2.6 2.6 3.2 1.6-3.8-.2-7.4-2.9-7.7z" fill="#79dca0"/><path d="m63.6 38.1c-.4 2.3-1.5 4.2-2.9 5.2-1.4 1.1-2.9 1.3-4.1.8 1.6-3.5 4.3-6.3 7-6z" fill="#79dca0"/><path d="m51.9 42.6c-.7 1.5-1 3-.9 4.5s.5 2.9 1.6 3.8c2.6-3.3 1.8-7.3-.7-8.3z" fill="#79dca0"/><path d="m61 46.8c-1 2.1-2.6 3.7-4.2 4.4s-3.2.6-4.2-.3c2.5-3.1 5.8-5.1 8.4-4.1z" fill="#79dca0"/><path d="m48.3 48c-1.1 1.3-1.9 2.7-2.3 4.2s-.4 3 .3 4.1c3.8-2.4 4.2-6.6 2-8.3z" fill="#79dca0"/><path d="m55.9 54.6c-1.6 1.8-3.7 2.9-5.5 3.2s-3.3-.3-4.1-1.4c3.6-2.4 7.4-3.5 9.6-1.8z" fill="#79dca0"/><path d="m41.2 36.8 2.1 12.6-11.3-5.9-11.3 5.9 2.1-12.6-9.1-8.9 12.6-1.9 5.7-11.4 5.7 11.4 12.6 1.9z" fill="#f7ca3c"/><path d="m32 14.6v17.7l5.7-6.3z" fill="#f2bd27"/><path d="m50.3 27.9-9.1 8.9-9.2-4.5z" fill="#f2bd27"/><path d="m13.7 27.9 9.1 8.9 9.2-4.5z" fill="#f2bd27"/><path d="m32 32.3v11.2l11.3 5.9z" fill="#f2bd27"/><path d="m32 32.3v11.2l-11.3 5.9z" fill="#f2bd27"/></g></svg>